Patient4_TMGait_0pt2_02_left_17_EMG.mot
version=1
nRows=40
nColumns=33
inDegrees=no
endheader
time	1LAddLong	2LGlutMax	3LGlutMed	4LIliopsoas	5LSemiMemb	6LBicFemLong	7LRecFem	8LVastMed	9LVastLat	10LGasMed	11LTibAnt	12lTibPost	13LPeroneusLong	14LSol	15LExtDigLong	16LFlexDigLong	17RAddLong	18RGlutMax	19RGlutMed	20RIliopsoas	21RSemiMemb	22RBicFemLong	23RRecFem	24RVastMed	25RVastLat	26RGasMed	27RTibAnt	28RTibPost	29RPeroneusLong	30RSol	31RExtDigLong	32RFlexDigLong
38.78	0.000153	0.099335	-0.061951	0.010681	-0.007935	-0.004425	-0.018768	0.005341	-0.029602	0.020752	0.004425	0.040894	0.088348	0.046234	-0.002899	-0.007324	0.009003	0.12604	0.22629	-0.053711	0.016937	-0.14008	-0.19058	0.18845	0.5043	0.000763	-0.14603	-0.006561	0.090485	0.005341	-0.006714	-0.008087
38.781	-0.000458	0.085144	-0.072784	0.009308	0.006409	-0.00946	0.03479	0.010681	-0.028839	0.058441	0.000153	0.038757	0.098572	0.006104	0.00473	-0.012817	0.003967	0.11307	-0.059509	0.00473	0.028229	-0.12497	-0.031738	0.064392	0.28778	-0.007782	-0.018768	-0.007477	-0.71732	-0.024414	-0.002899	-0.011749
38.782	-0.007477	0.13458	-0.081329	0.001984	-0.005798	-0.017242	0.067291	0.007477	-0.026245	0.05188	-0.000916	0.036163	0.11032	0.036163	-0.014801	-0.018311	-0.010223	0.098114	-0.69122	0.068817	-0.034485	-0.10864	-0.11276	-0.17181	0.15747	-0.009918	-0.12512	-0.002594	-0.16983	0.036316	0.000916	-0.018616
38.783	0.000153	0.12894	-0.066986	-0.003052	-0.00473	-0.027161	0.07309	0.006104	-0.015869	0.026398	-0.010986	0.022125	0.099487	0.050812	-0.006714	-0.015869	0.007782	0.098267	-0.90958	0.071259	-0.039825	-0.16693	-0.16159	-0.62195	-0.01709	-0.002899	-0.20172	-0.004425	0.24002	0.013733	0.000763	-0.012207
38.784	0.001678	0.13245	-0.085449	-0.003815	0.00885	-0.03952	0.065765	0.004578	-0.003815	0.018616	-0.000916	0.018921	0.11169	0.048218	-0.005798	-0.017853	0.006409	0.036621	-0.62698	0.077057	0.004883	-0.11002	-0.092621	-0.46646	-0.14374	0.002899	-0.10956	-0.001373	-0.092163	-0.04425	0.001068	-0.013733
38.785	-0.006104	0.121	-0.14587	-0.005188	-0.00351	-0.018311	0.065308	0.014191	-0.003204	0.014954	-0.003815	0.014038	0.10208	0.066071	-0.004578	-0.016174	0.016022	0.094604	0.48233	0.025482	0.001221	-0.036774	-0.04837	0.048676	-0.19974	0.006561	0.005798	-0.000458	-1.0698	0.004272	-0.003357	-0.013885
38.786	-0.000305	0.13794	-0.12314	-0.005188	0.000153	-0.030518	0.052032	0.006409	-0.00946	0.010071	0.002441	0.011749	0.096436	0.08255	0.022583	-0.011902	0.017853	0.090637	0.64651	-0.057068	0.004272	-0.007172	-0.24307	-0.58929	-0.079498	0.018158	0.045471	-0.003052	-0.43839	-0.074463	-0.00351	-0.014496
38.787	0.001984	0.15701	-0.09201	-0.013428	-0.006409	-0.032043	0.051117	0.000305	0.006561	0.020752	-0.003967	0.006104	0.094757	0.085144	0.037994	-0.015106	0.018768	0.11459	0.49759	-0.079041	0.009003	0.051422	-0.15976	-0.59341	-0.018768	0.015717	0.005493	-0.000153	-0.38925	-0.13031	-0.003357	-0.019073
38.788	0.005951	0.15472	-0.065918	-0.023804	-0.003662	-0.022125	0.02243	0.008545	0.004272	0.016174	0.007477	0.006104	0.080261	0.066528	0.04776	-0.014496	0.028992	0.093079	-0.091095	-0.086212	0.018616	0.03891	0.15106	-0.65826	0.00885	0.018311	0.036011	0.006256	-0.55573	-0.17929	-0.004272	-0.019073
38.789	0.005493	0.18341	-0.036621	-0.017853	0.015106	-0.041351	0.043945	0.011749	0.007477	0.010376	0.003662	0.005646	0.094452	0.053864	0.00351	-0.013733	0.030518	0.10284	0.14221	-0.06546	0.022888	0.016632	0.61005	-0.77011	0.01297	0.005188	0.033569	0.005951	0.23468	-0.10239	-0.000916	-0.016479
38.79	0.006409	0.15518	-0.070801	0.006866	0.006561	-0.036469	0.088501	0.007019	0.01236	0.012512	0.01709	0.004883	0.097504	0.068054	-0.013428	-0.006866	0.021362	0.034332	0.46432	-0.096741	0.024109	0.015259	0.68985	-0.45166	0.11597	-0.010986	-0.014343	0.003052	0.69244	-0.26916	0.001068	-0.01358
38.791	0.003052	0.13748	-0.061493	0.012665	-0.00824	-0.020905	0.11566	0.010681	-0.000763	0.009613	0.007629	-0.044098	0.103	0.10117	0.015564	-0.005951	0.050201	0.029449	0.14023	-0.10727	-0.02655	-0.0354	0.70969	0.10635	0.24582	-0.018311	0.018005	-0.047913	1.0713	-0.16464	-0.000153	-0.016632
38.792	0.015869	0.12604	-0.1001	0.031281	0.001068	0.000458	0.16495	0.014954	0.003815	0.006104	0.027313	-0.025787	0.094147	0.10071	0.001984	-0.005341	0.037842	0.016174	-0.28473	-0.097046	-0.0177	0.011139	0.73029	0.19714	0.28168	-0.068665	0.093079	-0.072784	0.73852	0.18112	-0.003815	-0.014191
38.793	0.009003	0.11475	-0.10452	0.010681	0.001526	-0.024872	0.19043	0.010223	0.005188	0.018616	0.015869	0.012207	0.088501	0.12985	-0.010681	-0.000916	0.0383	0.075684	-0.29556	0.050659	0.005341	0.008545	0.81268	0.17364	0.38437	-0.059967	0.20157	0.050659	-0.66513	0.46387	-0.005798	-0.014038
38.794	0.00885	0.048981	-0.055084	0.010986	0.009613	-0.032959	0.14862	0.022278	0.000305	0.008392	0.002441	0.025787	0.092468	0.10849	-0.032806	0.00473	0.018616	0.048981	-0.55725	0.06134	0.016479	0.056458	0.54123	0.13473	0.18631	-0.018005	0.18158	0.040436	-1.6307	0.26382	-0.003204	-0.008392
38.795	0.001068	0.05661	-0.02182	0.016479	-0.00061	-0.009003	0.13718	0.012665	0	0.012512	-0.017395	0.025177	0.084229	0.06424	-0.067291	0.013123	-0.006561	0.044861	0.000153	-0.035706	0.031738	0.042725	0.29648	0.42389	-0.082855	0.011292	-0.05661	0.010681	-0.49179	0.10346	-0.001678	-0.013428
38.796	0.003662	0.021973	-0.039063	0.014954	-0.005951	-0.029449	0.10727	0.015259	-0.004272	-0.003967	-0.046082	0.024872	0.083466	0.003357	-0.094452	0.011292	-0.024872	0.087433	0.004425	0.08316	0.044556	0.066681	-0.12375	0.68756	-0.1683	0.010529	-0.12299	-0.000458	0.14832	0.086823	-0.002899	-0.010681
38.797	0.005951	-0.01358	-0.054474	0.013885	-0.003052	-0.01297	0.067596	0.013428	-0.013428	-0.002594	-0.069733	0.017548	0.071259	0.025787	-0.030975	0.011292	-0.035553	0.097198	0.028076	0.20035	0.054626	0.078583	-0.56091	0.65353	-0.28778	0.010681	-0.11124	0	0.39154	0.036926	-0.002289	-0.012512
38.798	-0.006409	-0.014496	-0.042114	0.002594	-0.015259	-0.016327	0.036774	0.015411	-0.022278	0.001068	-0.01297	0.016937	0.091248	0.010223	0.066071	0.015564	-0.042572	0.072327	-0.024567	0.23529	0.055389	0.051575	-0.21729	0.52887	-0.33768	0.002747	-0.15808	-0.000458	0.616	0.027618	0.001373	-0.011749
38.799	-0.007324	-0.018311	0.008545	-0.042725	0.020752	-0.000305	0.023804	0.014496	-0.007324	-0.003357	0.09613	0.011292	0.090179	0.05249	0.12497	0.022736	0.004272	0.11765	0.30243	0.093384	0.036163	-0.028839	0.011444	0.27588	-0.095978	-0.005646	-0.10452	-0.002747	-0.13718	-0.003662	-0.005341	-0.011902
38.8	-0.00351	-0.067596	0.008545	-0.006714	0.006104	-0.00412	0.052643	0.012817	-0.008545	-0.001373	0.11673	0.016327	0.063934	0.075836	0.085297	0.019684	0.016937	0.16312	0.80719	0.10178	0.021057	-0.067444	-0.15015	-0.029297	0.00824	-0.010986	-0.1326	-0.006561	0.28214	0.025635	-0.002136	-0.022888
38.801	-0.004578	-0.066223	-0.032654	0.010071	-0.000153	-0.00824	0.06958	0.011597	-0.014343	-0.003662	0.045929	0.007477	0.06958	0.06546	-0.003052	0.01236	0.005035	0.10788	0.33249	0.075836	0.022888	0.048218	-0.70358	0.034485	0.11719	-0.007629	-0.045013	-0.002136	1.0349	-0.1561	-0.003815	-0.018158
38.802	0.010223	-0.090179	-0.06897	0.021667	-0.001526	0.013275	0.089569	0.021667	-0.010681	0.018463	0.014954	0.010223	0.11856	0.077209	-0.023346	0.00473	-0.00061	0.091858	0.40863	0.02533	0.029144	0.11688	-0.80536	0.24963	0.3122	0.007019	0.031128	-0.001984	0.43823	-0.23178	-0.00473	-0.020142
38.803	0.12116	-0.10849	-0.11063	-0.000916	-0.007629	0.014343	0.10056	0.007629	-0.007019	0.055084	-0.038605	0.004883	0.11734	0.046539	-0.019531	0.014191	0.011902	0.13321	0.51148	-0.029907	0.024109	0.073242	-0.34515	-0.24658	0.36255	-0.005798	0.1149	-0.00824	-0.21469	-0.12695	-0.003967	-0.020294
38.804	0.082245	-0.10483	-0.084534	-0.016174	-0.003204	0.004425	0.076752	0.007019	-0.000305	0.057831	-0.045624	0.011139	0.090332	0.053864	0.036011	0.012054	0.025482	0.17425	0.44403	-0.06958	0.023956	0.041351	-0.10376	-0.55771	0.34637	0.000153	0.025635	0.001831	0.2626	-0.04837	-0.003204	-0.016632
38.805	0.006256	-0.11276	-0.033875	-0.016632	-0.002441	0.013885	0.060425	0.011292	0.002136	0.036316	-0.038452	0.007324	0.0354	0.049133	0.068359	0.011749	0.024109	0.092316	-0.14984	-0.02533	0.026245	0.049591	-0.15808	-0.24231	0.18188	-0.00061	-0.10346	-0.00824	0.8049	-0.024719	-0.001373	-0.018921
38.806	0.009155	-0.13931	-0.022583	-0.011597	-0.00061	0.000305	-0.016327	0.006104	0.005188	0.01297	0.014954	0.009308	0.027924	0.06485	0.053101	0.003357	0.031128	0.10895	-0.25543	-0.029602	0.014496	0.11536	-0.28488	-0.38925	-0.11887	-0.004578	0.039978	-0.003815	1.1684	0.068359	-0.003052	-0.016174
38.807	0.005798	-0.15595	-0.053864	-0.033569	0.000763	-0.006866	-0.06073	-0.000763	0.019531	-0.033417	0.008392	0.00351	0.031128	0.038452	0.053101	0.010529	0.0383	0.1442	0.16602	-0.079651	0.021515	0.19791	-0.068054	-0.42633	-0.41672	0.002594	0.19119	-0.002136	0.51956	0.083466	0.001984	-0.021057
38.808	-0.001984	-0.11383	-0.038605	-0.00473	0.005188	-0.023193	-0.010986	0.001831	0.012817	-0.068665	-0.023499	0.007019	0.052795	0.072021	0.14496	0.00351	0.052338	0.18356	0.65262	-0.17273	0.004425	0.023041	0.062103	-0.40832	-0.53513	-0.003357	0.22995	-0.004883	-0.45242	-0.077362	-0.00412	-0.01709
38.809	0.002747	-0.11795	-0.040131	0.010376	0.003204	-0.009918	0.009613	-0.002136	0.020294	-0.039673	-0.088806	0.011902	0.068665	0.074615	0.076141	-0.007935	0.056305	0.14496	0.33661	-0.065155	-0.016785	-0.025024	-0.028992	-0.16541	-0.25101	0.000458	0.21881	-0.005646	-1.3782	-0.15549	-0.003662	-0.020752
38.81	0.010071	-0.11978	-0.062408	0.025787	0.00351	-0.005035	0.020142	-0.002441	0.022888	-0.043182	-0.087433	0.007629	0.074768	0.058289	-0.07782	0.00473	0.026398	0.12009	-0.19028	0.06958	-0.003052	0.091705	0.093231	0.22919	-0.096588	0.00061	-0.016174	-0.009308	-2.2847	-0.14511	0	-0.005035
38.811	0.009918	-0.11581	-0.13748	0.039215	0.005646	-0.007629	0.020447	0.000305	0.026855	-0.035095	-0.037231	0.006409	0.071869	0.055847	-0.084381	-0.005035	0.023956	0.11139	-0.1268	0.076294	0.011902	0.076599	0.42664	0.060272	-0.12085	-0.001678	-0.27817	-0.000458	-1.2563	-0.044556	-0.002747	-0.012665
38.812	0.005188	-0.11475	-0.12024	0.026093	0.009613	-0.013733	0.015717	-0.005188	0.009613	-0.02182	-0.040894	0.006866	0.04715	0.023956	-0.009155	-0.009308	0.039368	0.046844	-0.043488	0.007935	0.010223	0.0914	0.54138	-0.1767	0.044861	-0.005493	-0.46143	-0.011597	0.30212	0.071564	-0.001984	-0.009003
38.813	0.007324	-0.11765	-0.050812	0.046387	-0.003357	-0.008392	0.009308	0.005341	0.006409	-0.004578	0.026245	0.013275	0.011292	0.055389	-0.011597	-0.000763	0.006561	0.1091	-0.26337	-0.006866	0.011444	0.008087	0.40176	-0.16403	0.28717	-0.001068	-0.13016	-0.009613	0.57312	0.05188	-0.00412	-0.007019
38.814	0.011444	-0.0914	-0.034943	0.036011	-0.001678	-0.019226	-0.020447	0.002747	0.005341	0.002747	0.12192	0.002747	-0.00351	0.053406	0.049744	-0.002594	0.019226	0.13825	-0.17105	-0.018616	0.003815	-0.037842	0.3302	-0.037384	0.14832	0.001984	0.029602	-0.00885	0.1268	-0.030518	-0.004578	-0.007935
38.815	0.014343	-0.10544	-0.067596	0.04837	0.009613	-0.023346	-0.091553	-0.000305	0.014801	0.018768	0.18601	0.007935	0.012207	0.084381	-0.21439	-0.008545	0.057373	0.12589	-0.159	-0.019226	-0.015869	-0.044861	0.22842	-0.17441	0.061951	-0.003815	0.49332	-0.003815	-0.69076	-0.061646	-0.003815	-0.007935
38.816	0.014954	-0.11215	-0.096283	0.02533	0.003357	-0.015106	-0.098572	0.007782	0.022278	-0.018463	0.1358	0.001984	0.10132	0.073853	-0.12405	0.004425	0.077515	0.17456	0.59189	0.019684	-0.028687	-0.066223	0.20172	0.003357	0.070953	-0.014496	0.47577	-0.006561	0.22018	-0.16815	-0.000153	-0.013885
38.817	0.002594	-0.09491	-0.10437	-0.009766	0.009155	-0.018158	-0.018311	0.011749	0.020599	-0.019226	0.072937	0.003967	0.10757	0.090027	0.046692	-0.000916	0.056	0.23514	0.93384	-0.056305	-0.025635	-0.16174	0.22812	0.12421	0.1152	-0.010223	0.22766	-0.001678	0.37018	-0.14404	-0.003967	-0.002289
38.818	0.007935	-0.10468	-0.10147	-0.021667	0.002747	0.002441	0.014496	0.018311	0.022888	0.00351	0.12711	0.003204	0.025024	0.082397	0.49728	-0.007782	0.015717	0.20783	0.02594	-0.046692	0.028229	-0.090485	-0.058899	0.023041	0.30258	-0.009155	0.24551	-0.003204	0.31143	-0.056458	-0.004883	-0.016937
38.819	-0.001221	-0.12039	-0.064087	0.002747	0.003662	-0.024414	-0.016785	0.014191	0.023499	0.01297	0.000458	0.002747	0.027924	0.11078	0.060425	-0.003204	-0.021667	0.13138	-0.044861	0.042419	0.051422	0.04303	-0.10635	-0.23682	0.19638	-0.005188	0.15167	-0.002136	0.75607	-0.2211	0.007019	-0.020447
